# xmcd
#
# Track frame offsets: 
#        150
#        43575
#        72537
#        106012
#        127000
#        155700
#        174612
#        200962
#        230950
#
# Disc length: 3407 seconds
#
# Revision: 2
# Processed by: cddbd v1.5.2PL0 Copyright (c) Steve Scherf et al.
# Submitted via: ExactAudioCopyFreeDBPlugin 1.0
#
DISCID=8b0d4d09
DTITLE=Carey Bell - Blues Classics
DYEAR=1996
DGENRE=blues
TTITLE0=I Am Worried
TTITLE1=Heartaches And Pain
TTITLE2=Easy To Love You
TTITLE3=Train Ticket
TTITLE4=When A Woman Gets In Trouble
TTITLE5=Tribute To Big Walter
TTITLE6=When I Lay Down To Rest
TTITLE7=Blues Harp Blues By Three
TTITLE8=Goin' On Main Street
EXTD=
EXTT0=
EXTT1=
EXTT2=
EXTT3=
EXTT4=
EXTT5=
EXTT6=
EXTT7=
EXTT8=
PLAYORDER=
